<?xml version="1.0" standalone="no"?><!DOCTYPE svg PUBLIC "-//W3C//DTD SVG 1.1//EN" "http://www.w3.org/Graphics/SVG/1.1/DTD/svg11.dtd"><svg class="icon" width="200px" height="200.00px" viewBox="0 0 1024 1024" version="1.1" xmlns="http://www.w3.org/2000/svg"><path d="M674.80640791 77.12605038A46.00840342 46.00840342 0 0 0 608.62993701 77.12605038a46.00840342 46.00840342 0 0 0 0 63.02521056 520.58823487 520.58823487 0 0 1 0 735.50420156 47.26890791 47.26890791 0 0 0 0 66.80672227 47.26890791 47.26890791 0 0 0 66.80672226 0A614.49579844 614.49579844 0 0 0 674.80640791 77.12605038zM467.45346641 242.88235332a47.26890791 47.26890791 0 0 0-63.02520967 0 46.63865566 46.63865566 0 0 0 0 63.02520967 299.36974747 299.36974747 0 0 1 0 422.26890732 47.26890791 47.26890791 0 0 0 0 63.02521055 46.63865566 46.63865566 0 0 0 63.02520967 0 393.90756329 393.90756329 0 0 0 0-548.31932753zM190.14254229 457.79831914a78.15126094 78.15126094 0 0 0 0 110.92436982 78.7815123 78.7815123 0 1 0 0-110.92436982z" /></svg>